<svg width="51" height="51" viewBox="0 0 51 51" fill="none" xmlns="http://www.w3.org/2000/svg">
<g id="icn-sparkles">
<path id="Vector" d="M10.9167 6.75V15.0833M40.0833 35.9167V44.25M6.75 10.9167H15.0833M35.9167 40.0833H44.25M25.5 6.75L21.5167 18.8604C21.3128 19.4802 20.9662 20.0435 20.5049 20.5049C20.0435 20.9662 19.4802 21.3128 18.8604 21.5167L6.75 25.5L18.8604 29.4833C19.4802 29.6872 20.0435 30.0338 20.5049 30.4951C20.9662 30.9565 21.3128 31.5198 21.5167 32.1396L25.5 44.25L29.4833 32.1396C29.6872 31.5198 30.0338 30.9565 30.4951 30.4951C30.9565 30.0338 31.5198 29.6872 32.1396 29.4833L44.25 25.5L32.1396 21.5167C31.5198 21.3128 30.9565 20.9662 30.4951 20.5049C30.0338 20.0435 29.6872 19.4802 29.4833 18.8604L25.5 6.75Z" stroke="white" stroke-width="3.33" stroke-linecap="round" stroke-linejoin="round"/>
</g>
</svg>
